# xmcd
#
# Track frame offsets:
#	150
#	14292
#	33581
#	50251
#	71462
#	88716
#	105901
#	130752
#	144890
#	159359
#
# Disc length: 2353 seconds
# Revision: 0
# Processed by: cddbd v1.5.2PL0 Copyright (c) Steve Scherf et al.
# Submitted via: dBpowerAMP V12.0
#
DISCID=72092f0a
DTITLE=Lacy J. Dalton - Highway Diner [Columbia] (L)
DYEAR=1986
DGENRE=Country
TTITLE0=Working Class Man
TTITLE1=12:05
TTITLE2=Changing All The Time
TTITLE3=Takin' It All In Stride
TTITLE4=Can't See Me Without You
TTITLE5=This Ol' Town
TTITLE6=Up With the Wind
TTITLE7=Boomtown
TTITLE8=Gone Again
TTITLE9=Closing Time
EXTD=
EXTT0=
EXTT1=
EXTT2=
EXTT3=
EXTT4=
EXTT5=
EXTT6=
EXTT7=
EXTT8=
EXTT9=
PLAYORDER=
